<svg width="32" height="32" viewBox="0 0 32 32" fill="none" xmlns="http://www.w3.org/2000/svg">
<path d="M17.2532 7.49315V4H6.2395V28H17.2532V24.5069C14.997 24.5069 12.8333 23.6105 11.2379 22.0152C9.6426 20.4199 8.74635 18.2562 8.74635 16C8.74635 13.7438 9.6426 11.5801 11.2379 9.98475C12.8333 8.38941 14.997 7.49315 17.2532 7.49315Z" fill="#C27CF8"/>
<path d="M17.2537 7.49316V24.5069C19.5098 24.5069 21.6736 23.6106 23.2689 22.0152C24.8643 20.4199 25.7605 18.2562 25.7605 16C25.7605 13.7439 24.8643 11.5801 23.2689 9.98477C21.6736 8.38942 19.5098 7.49316 17.2537 7.49316Z" fill="#C27CF8"/>
</svg>
